<?xml version="1.0" encoding="UTF-8" standalone="no"?>
<!-- Created with Inkscape (http://www.inkscape.org/) -->

<svg
   version="1.1"
   id="svg1"
   width="1024"
   height="1024"
   viewBox="0 0 1024 1024"
   sodipodi:docname="logo.svg"
   inkscape:version="1.3 (0e150ed, 2023-07-21)"
   inkscape:export-filename="logo_plain.svg"
   inkscape:export-xdpi="96"
   inkscape:export-ydpi="96"
   xmlns:inkscape="http://www.inkscape.org/namespaces/inkscape"
   xmlns:sodipodi="http://sodipodi.sourceforge.net/DTD/sodipodi-0.dtd"
   xmlns="http://www.w3.org/2000/svg"
   xmlns:svg="http://www.w3.org/2000/svg">
  <defs
     id="defs1" />
  <sodipodi:namedview
     id="namedview1"
     pagecolor="#ffffff"
     bordercolor="#000000"
     borderopacity="0.25"
     inkscape:showpageshadow="2"
     inkscape:pageopacity="0.0"
     inkscape:pagecheckerboard="0"
     inkscape:deskcolor="#d1d1d1"
     inkscape:zoom="0.48730469"
     inkscape:cx="516.10421"
     inkscape:cy="513.02605"
     inkscape:window-width="1920"
     inkscape:window-height="1027"
     inkscape:window-x="1920"
     inkscape:window-y="25"
     inkscape:window-maximized="0"
     inkscape:current-layer="g1" />
  <g
     inkscape:groupmode="layer"
     inkscape:label="Image"
     id="g1">
    <path
       style="fill:#000000;stroke-width:1.83014"
       d="m 508.85716,979.75599 v -32.02753 h 19.21652 19.21652 v 32.02753 32.02751 h -19.21652 -19.21652 z m 60.39478,0 v -32.02753 h 20.13159 20.1316 v 32.02753 32.02751 h -20.1316 -20.13159 z M 280.5215,680.31478 l 0.48261,-320.97784 5.09549,-13.87799 c 2.80269,-7.6329 8.56765,-19.76129 12.81102,-26.95194 8.12475,-13.76727 23.08929,-33.05142 25.76515,-33.20209 0.86803,-0.0488 8.06636,5.3865 15.99656,12.07859 l 14.41843,12.16744 -7.29221,7.91112 c -9.80006,10.63174 -19.76392,26.4959 -24.46831,38.95758 -3.15023,8.34519 -3.86728,14.32396 -3.8788,32.34041 l -0.0183,22.10256 7.64104,15.41542 c 16.56318,33.41446 44.32556,51.10325 80.20628,51.10325 18.09666,0 33.69132,-4.33158 49.17819,-13.65962 5.90972,-3.55959 11.2629,-6.42376 11.89595,-6.36481 0.63286,0.0589 9.79822,11.54815 20.36731,25.53157 10.56909,13.98342 19.76319,25.25922 20.43137,25.05733 1.04776,-0.31664 32.39522,-40.01095 39.05768,-49.45776 2.21978,-3.14737 2.85923,-2.97383 11.24843,3.05323 14.29362,10.26894 26.67437,14.3532 46.66064,15.39286 28.10536,1.46197 49.58175,-6.78547 68.16028,-26.17508 33.80204,-35.27766 32.59707,-92.8871 -2.75182,-131.56429 l -8.65639,-9.47163 14.77786,-12.79095 14.77788,-12.79095 7.6522,8.31556 c 14.95247,16.2488 25.67474,35.48656 33.19571,59.55961 3.21063,10.27589 3.42988,18.79436 3.41488,132.68551 -0.0184,108.64085 -0.36604,123.6679 -3.27779,139.99487 -12.03119,67.46451 -34.62195,119.89264 -75.12288,174.34408 -8.57185,11.52432 -27.18479,32.16573 -44.97031,49.87132 -44.78072,44.57948 -85.82099,73.70002 -145.6444,103.34373 l -31.11247,15.41677 -16.4713,-7.85022 c -9.05922,-4.31768 -20.42149,-9.34344 -25.24941,-11.16828 -4.82793,-1.82484 -8.12219,-3.85153 -7.32059,-4.50362 0.80161,-0.65226 8.45784,-3.95531 17.01377,-7.34016 75.14391,-29.72827 141.85873,-73.11925 189.97214,-123.55689 62.75622,-65.78773 95.94334,-137.28909 102.77564,-221.4298 1.99834,-24.60908 2.66139,-107.1218 0.8609,-107.1218 -0.57448,0 -6.13354,3.60571 -12.35348,8.01272 -14.5987,10.34366 -22.87096,14.4405 -39.69822,19.6602 -19.16547,5.94506 -49.7212,6.03358 -70.00121,0.20282 -7.81234,-2.24612 -14.8972,-4.08386 -15.74438,-4.08386 -0.84699,0 -12.57364,13.94075 -26.05906,30.97942 -13.48543,17.03867 -25.08726,30.8334 -25.78199,30.65491 -0.69471,-0.17843 -12.39887,-14.41384 -26.00928,-31.63417 l -24.74613,-31.30972 -9.92487,3.35063 c -40.04962,13.52064 -87.26516,5.48388 -120.05512,-20.43511 l -9.25176,-7.31311 v 19.92841 19.92841 l 7.77812,-1.50469 c 4.27796,-0.82758 16.4746,-1.54058 27.10371,-1.58441 85.96722,-0.35455 153.29001,69.52499 154.20216,160.05798 0.52214,51.81545 -15.56722,96.23406 -58.31099,160.98196 -4.50672,6.82663 -3.21464,6.07555 20.11184,-11.6903 22.35375,-17.02508 55.91934,-49.03929 70.95453,-67.67506 13.01086,-16.12682 32.17962,-44.87725 38.15852,-57.23277 l 4.14181,-8.55878 24.48074,-8.60194 c 13.46438,-4.73107 24.79902,-8.2836 25.18811,-7.89453 1.56587,1.56581 -20.93906,47.56061 -31.37894,64.13104 -31.63606,50.21417 -68.56143,89.20408 -119.54671,126.23093 -27.78746,20.17996 -49.3709,32.83344 -89.31271,52.36001 -21.27087,10.39883 -38.74473,20.23146 -43.92349,24.71568 -6.8021,5.89033 -55.11573,44.8929 -65.81714,53.13309 -1.86198,1.43397 -2.21867,-60.7776 -1.83014,-319.19685 z m 64.7132,215.81653 c 57.70593,-50.63917 100.8979,-112.29209 117.06815,-167.1051 6.52885,-22.13096 8.18148,-56.29475 3.69798,-76.44716 -9.84856,-44.26735 -42.0871,-79.08832 -83.55434,-90.24727 -15.17026,-4.08237 -39.59629,-4.11905 -53.40107,-0.0802 l -10.52333,3.07885 v 176.78194 c 0,168.08517 0.15738,176.66038 3.20275,174.31053 1.76151,-1.35931 12.34103,-10.49054 23.50986,-20.29166 z m 295.79058,56.88352 0.51738,-20.33583 20.1316,-7.06825 c 98.73814,-34.66712 192.7699,-117.80284 244.08479,-215.80106 24.64857,-47.07234 39.19932,-93.34428 48.05502,-152.81711 3.69836,-24.83676 3.18702,-88.11596 -0.93155,-115.29913 C 937.8898,342.74074 894.93538,257.49616 824.64994,187.21064 787.17278,149.73355 753.33268,125.34599 706.5128,102.07281 615.78411,56.973356 516.03224,44.136442 417.15756,64.836059 251.35906,99.546234 116.45927,228.98808 74.224641,393.89386 c -8.831917,34.48461 -12.027352,57.82158 -13.209988,96.47476 -3.188847,104.2254 27.667218,199.09116 92.468617,284.29032 17.00132,22.35294 57.92794,63.88018 78.56446,79.71774 l 15.09871,11.58748 v 23.49579 c 0,12.92272 -0.44894,23.49582 -0.99762,23.49582 -2.77449,0 -31.15913,-20.76198 -49.9818,-36.55924 C 98.835517,794.70934 38.670046,683.32295 23.640347,556.99258 20.175883,527.87211 20.67478,467.1649 24.618193,438.03317 31.097272,390.16692 47.161,337.7561 69.041665,293.09323 140.98449,146.24392 276.66686,45.941003 437.48151,20.724752 c 25.92582,-4.065246 90.45198,-5.613274 118.23596,-2.836542 128.91321,12.883506 250.71594,78.773771 331.86549,179.52541 44.2033,54.88089 78.8302,124.22429 95.06285,190.3712 9.18879,37.44337 11.48672,56.11841 12.5019,101.59823 1.22437,54.85962 -2.4125,89.56198 -14.20906,135.57929 -37.75864,147.29282 -146.9632,272.30148 -289.81132,331.75323 -16.9971,7.07405 -45.05871,16.63492 -48.82387,16.63492 -1.09754,0 -1.59443,-7.9077 -1.27818,-20.33566 z M 484.28545,400.8054 c -15.27018,-13.70533 -23.95166,-20.34824 -24.48844,-18.73791 -0.45735,1.37209 -3.75619,5.73201 -7.33082,9.68867 -21.53075,23.83189 -58.66659,20.26842 -74.7995,-7.17757 -4.41576,-7.51227 -5.15533,-10.7393 -5.15533,-22.49643 0,-15.63169 3.32703,-24.25171 13.15289,-34.07744 3.33507,-3.33505 6.06364,-6.42291 6.06364,-6.86188 0,-0.79341 -30.20875,-27.38492 -80.06885,-70.48102 l -26.07957,-22.54168 v -25.4413 c 0,-13.99272 0.35414,-25.44133 0.78679,-25.44133 0.87681,0 37.26632,31.15893 89.76934,76.8661 19.07798,16.60856 48.30337,42.02913 64.94544,56.49015 16.64205,14.46099 38.70536,33.64656 49.02958,42.63457 l 18.77125,16.34185 26.98237,-23.35558 c 48.80996,-42.24954 62.89293,-54.4897 128.90187,-112.03513 35.92409,-31.31808 65.77833,-56.94196 66.34275,-56.94196 0.56423,0 1.02598,11.49198 1.02598,25.53772 v 25.5377 l -46.95493,40.80505 c -25.82536,22.44278 -49.91465,43.39763 -53.53174,46.56632 l -6.57681,5.76128 4.65076,3.67917 c 2.55781,2.02357 7.08193,8.07843 10.05335,13.45525 4.55176,8.236 5.3982,11.79424 5.37368,22.58708 -0.0348,15.11399 -3.70642,23.97397 -14.12743,34.08732 -12.20323,11.84286 -28.52227,15.19208 -47.11709,9.67 -7.43936,-2.20924 -12.10403,-5.26747 -19.34188,-12.68098 l -9.53818,-9.76963 -20.93209,17.7139 c -11.51253,9.74263 -22.10614,18.64459 -23.54115,19.78213 -2.09259,1.65881 -7.2924,-2.1351 -26.26588,-19.16442 z m -54.95632,-35.89485 c 5.92729,-5.92729 5.70804,-7.35901 -2.19307,-14.32272 -12.68125,-11.17664 -12.89959,-11.24603 -18.0165,-5.72485 -13.22572,14.27092 6.45914,33.79805 20.20957,20.04757 z m 179.3542,0 c 5.80632,-5.8064 5.84695,-13.86029 0.10247,-20.53762 l -4.38888,-5.10234 -9.79474,9.08273 c -5.38723,4.99549 -10.0616,9.69291 -10.38754,10.43871 -0.32595,0.74581 1.48955,3.43831 4.03455,5.98334 6.07993,6.07992 14.43325,6.13519 20.4332,0.13526 z m -25.7053,-103.96791 c -21.46193,-8.20672 -40.62721,-11.11949 -74.12087,-11.26504 -33.39869,-0.14513 -41.36951,0.91789 -69.23164,9.2331 l -15.24255,4.54898 -7.6522,-6.27049 c -4.20878,-3.44878 -11.72555,-9.95829 -16.70409,-14.46561 l -9.05191,-8.19509 15.47535,-5.98974 c 67.50892,-26.12944 147.86327,-25.38425 208.25457,1.9313 l 11.59488,5.24452 -10.67981,9.37557 c -5.87404,5.15658 -13.56247,11.6202 -17.0855,14.36358 l -6.4055,4.988 z"
       id="path1" />
  </g>
</svg>
